# xmcd
#
# Track frame offsets:
#	187
#	27189
#	50972
#	72544
#	93297
#	118319
#	140572
#	164627
#	188369
#	208889
#
# Disc length: 3020 seconds
#
# Revision: 1
# Processed by: cddbd v1.5.1PL0 Copyright (c) Steve Scherf et al.
# Submitted via: CDex 1.50Beta5
#
DISCID=9b0bca0a
DTITLE=浅香唯 - CONTRAST
DYEAR=1993
DGENRE=Pop
TTITLE0=優しさのコントラスト
TTITLE1=ラジオからのMessage
TTITLE2=ひとり
TTITLE3=So far away
TTITLE4=想い出にあなたが傷つくように
TTITLE5=ハープ橋を越えて…
TTITLE6=Blue sunday
TTITLE7=天使のようなヤツ
TTITLE8=Silent rouge
TTITLE9=Walking with you
EXTD=
EXTT0=
EXTT1=
EXTT2=
EXTT3=
EXTT4=
EXTT5=
EXTT6=
EXTT7=
EXTT8=
EXTT9=
PLAYORDER=
